<!-- Generator: Adobe Illustrator 24.2.1, SVG Export Plug-In  -->
<svg version="1.1" xmlns="http://www.w3.org/2000/svg" xmlns:xlink="http://www.w3.org/1999/xlink" x="0px" y="0px" width="310px"
     height="330.7px" viewBox="0 0 310 330.7" style="overflow:visible;enable-background:new 0 0 310 330.7;" xml:space="preserve">
<defs>
</defs>
<g>
    <path style="fill:#FFFFFF;" d="M290.9,54l-124-51.7c-3.2-1.3-8.5-2.4-11.9-2.4c-3.4,0-8.8,1.1-11.9,2.4l-124,51.7
        C7.5,58.8,0,70.1,0,82.1c0,166.7,122.2,248.6,154.4,248.6C188,330.7,310,247.9,310,82.1C310,70.1,302.4,58.8,290.9,54z
         M170.5,166.9v44.9c0,8.6-6.9,15.5-15.5,15.5s-15.5-6.9-15.5-15.5v-44.9c-12.2-5.8-20.7-18.1-20.7-32.5c0-20,16.2-36.2,36.2-36.2
        s36.2,16.2,36.2,36.2C191.2,148.7,182.7,161.1,170.5,166.9z"/>
</g>
</svg>
