<!-- Generator: Adobe Illustrator 24.2.1, SVG Export Plug-In  -->
<svg version="1.1" xmlns="http://www.w3.org/2000/svg" xmlns:xlink="http://www.w3.org/1999/xlink" x="0px" y="0px" width="544.2px"
     height="544.2px" viewBox="0 0 544.2 544.2" style="overflow:visible;enable-background:new 0 0 544.2 544.2;"
     xml:space="preserve">
<defs>
</defs>
<g>
    <path style="fill:#66B7BB;" d="M272.1,0C2.1,0,0,121.8,0,272.1s2.1,272.1,272.1,272.1s272.1-121.8,272.1-272.1S542.1,0,272.1,0z"/>
    <g>
        <path style="fill:#FFFFFF;" d="M408.1,160.8l-124-51.7c-3.2-1.3-8.5-2.4-11.9-2.4c-3.4,0-8.8,1.1-11.9,2.4l-124,51.7
            c-11.6,4.8-19.1,16.1-19.1,28c0,166.7,122.2,248.6,154.4,248.6c33.6,0,155.6-82.8,155.6-248.6
            C427.1,176.9,419.6,165.6,408.1,160.8z M287.6,273.7v44.9c0,8.6-6.9,15.5-15.5,15.5s-15.5-6.9-15.5-15.5v-44.9
            c-12.2-5.8-20.7-18.1-20.7-32.5c0-20,16.2-36.2,36.2-36.2s36.2,16.2,36.2,36.2C308.3,255.5,299.8,267.8,287.6,273.7z"/>
    </g>
</g>
</svg>
