<svg width="512" height="512" xmlns="http://www.w3.org/2000/svg"><path d="M262 507c-3.767 2.644-8.233 2.644-12 0C83.457 393.672 0 227.886 0 10V9c0-3.13 2-5.817 6-6 4 .183 125.985 43.173 250 43 82.677.115 165.343-14.218 248-43 2.998-.596 8 1.183 8 4v3c0 217.886-83.457 383.672-250 497zm-65-336c-.463 18.841 7.83 35.244 21 46-5.084 45.067-16.98 97.616-36 158-.476 1.913.697 4.157 3 5 .19-.062.593 0 1 0 31.15-3.333 54.512-5 70-5 15.624 0 38.93 1.667 70 5a4 4 0 0 0 4-4c0-.405-.062-.808 0-1-19.02-60.384-30.915-112.933-36-158 13.17-10.756 21.464-27.159 21-46 .464-32.36-26.159-59-59-59-32.84 0-59.463 26.64-59 59z" fill="#112" fill-rule="evenodd"/></svg>