<?xml version="1.0" encoding="UTF-8"?>
<svg width="512px" height="512px" viewBox="0 0 512 512" version="1.1" xmlns="http://www.w3.org/2000/svg" xmlns:xlink="http://www.w3.org/1999/xlink">
    <!-- Generator: Sketch 52.5 (67469) - http://www.bohemiancoding.com/sketch -->
    <title>shield/icon-mask</title>
    <desc>Created with Sketch.</desc>
    <g id="shield/icon-mask" stroke="none" stroke-width="1" fill="none" fill-rule="evenodd">
        <g id="Shield-Dark" transform="translate(0.000000, 3.000000)" fill="#111122">
            <path d="M262,504 C258.233367,506.644449 253.766636,506.644449 250,504 C83.4566301,390.671901 8.24564807e-06,224.885812 0,7 L0,6 C0,2.86975145 2,0.183035573 6,5.58997293e-14 C10,0.183035573 131.985192,43.1731062 256,43 C338.676539,43.1154041 421.343205,28.7820708 504,5.58997293e-14 C506.998159,-0.596160475 512,1.18280466 512,4 L512,7 C512,224.885814 428.543377,390.671903 262,504 Z M197,168 C196.536812,186.841309 204.830633,203.244311 218,214 C212.91614,259.067281 201.020625,311.615873 182,372 C181.523966,373.912809 182.697084,376.157017 185,377 C185.190639,376.938361 185.593457,376.999996 186,377 C217.149288,373.666663 240.512283,371.999998 256,372 C271.62424,371.999998 294.929181,373.666666 326,377 C328.210229,377 330,375.209137 330,373 C330,372.594576 329.938403,372.191512 330,372 C310.980442,311.615871 299.084928,259.06728 294,214 C307.170436,203.244311 315.464257,186.841309 315,168 C315.464257,135.639057 288.841441,109 256,109 C223.159627,109 196.536812,135.639057 197,168 Z" id="Shape"></path>
        </g>
    </g>
</svg>